<svg xmlns="http://www.w3.org/2000/svg" viewBox="0 0 48 48"><defs><style>.cls-1{fill:none;stroke:#000;stroke-linejoin:round;stroke-width:2px;}</style></defs><title>03-calculator</title><g id="_03-calculator" data-name="03-calculator"><rect class="cls-1" x="1" y="17" width="28" height="30" rx="4" ry="4"/><rect class="cls-1" x="5" y="30" width="4" height="4"/><rect class="cls-1" x="13" y="30" width="4" height="4"/><rect class="cls-1" x="21" y="30" width="4" height="4"/><rect class="cls-1" x="5" y="38" width="4" height="4"/><rect class="cls-1" x="13" y="38" width="4" height="4"/><rect class="cls-1" x="21" y="38" width="4" height="4"/><line class="cls-1" x1="1" y1="25" x2="26" y2="25"/><line class="cls-1" x1="4" y1="21" x2="6" y2="21"/><line class="cls-1" x1="8" y1="21" x2="14" y2="21"/><rect class="cls-1" x="36.172" y="8.515" width="5.657" height="16.971" transform="translate(-0.598 32.556) rotate(-45)"/><polyline class="cls-1" points="31 13 31 9 35 9"/><line class="cls-1" x1="31" y1="9" x2="33" y2="11"/><path class="cls-1" d="M47,16V3a2,2,0,0,0-2-2H21L13,9v5"/><path class="cls-1" d="M47,26V45a2,2,0,0,1-2,2H31"/><polyline class="cls-1" points="21 1 21 9 13 9"/><line class="cls-1" x1="28" y1="9" x2="24" y2="9"/><line class="cls-1" x1="28" y1="13" x2="16" y2="13"/><path class="cls-1" d="M32,42h8a2,2,0,0,0,2-2V34a2,2,0,0,0-2-2H32"/><line class="cls-1" x1="37" y1="32" x2="37" y2="42"/><line class="cls-1" x1="42" y1="37" x2="32" y2="37"/><path class="cls-1" d="M43,9V7a2,2,0,0,0-2-2H39"/><line class="cls-1" x1="37" y1="5" x2="35" y2="5"/></g></svg>