<svg xmlns="http://www.w3.org/2000/svg" viewBox="0 0 48 48"><defs><style>.cls-1{fill:none;stroke:#000;stroke-linejoin:round;stroke-width:2px;}</style></defs><title>06-low book</title><g id="_06-low_book" data-name="06-low book"><path class="cls-1" d="M31,39H23.888A1.939,1.939,0,0,1,22,37.013v-.026A1.945,1.945,0,0,1,23.888,35H27.7s0-2,6.65-2S41,35,41,35V45s-15.05,2-16,2L9,39H9a2.8,2.8,0,0,1,3.759-2.633L21,40l2-1"/><rect class="cls-1" x="41" y="33" width="6" height="13"/><path class="cls-1" d="M5,47a4,4,0,0,1-4-4V5A4,4,0,0,1,5,1H37V30"/><polyline class="cls-1" points="5 1 5 47 17 47"/><rect class="cls-1" x="10" y="6" width="22" height="12" rx="2" ry="2"/><line class="cls-1" x1="14" y1="10" x2="28" y2="10"/><line class="cls-1" x1="14" y1="14" x2="25" y2="14"/></g></svg>