<svg xmlns="http://www.w3.org/2000/svg" viewBox="0 0 48 48"><defs><style>.cls-1{fill:none;stroke:#000;stroke-linejoin:round;stroke-width:2px;}</style></defs><title>15-jude_1</title><g id="_16-news" data-name="16-news"><polyline class="cls-1" points="7 4 7 1 39 1 39 23"/><path class="cls-1" d="M42,14h5V43a4,4,0,0,1-8,0"/><path class="cls-1" d="M43,47H11a4,4,0,0,1-4-4V24"/><path class="cls-1" d="M21,7H3A2,2,0,0,0,1,9V19a2,2,0,0,0,2,2H13l3,3V21h5a2,2,0,0,0,2-2V9A2,2,0,0,0,21,7Z"/><path class="cls-1" d="M41,26H23a2,2,0,0,0-2,2v7l-5,5H41a2,2,0,0,0,2-2V28A2,2,0,0,0,41,26Z"/><path class="cls-1" d="M35,9V7a2,2,0,0,0-2-2H31"/><line class="cls-1" x1="29" y1="5" x2="27" y2="5"/><line class="cls-1" x1="36" y1="12" x2="26" y2="12"/><line class="cls-1" x1="36" y1="16" x2="26" y2="16"/><line class="cls-1" x1="36" y1="20" x2="26" y2="20"/><line class="cls-1" x1="18" y1="31" x2="10" y2="31"/><line class="cls-1" x1="17" y1="35" x2="10" y2="35"/><line class="cls-1" x1="13" y1="39" x2="10" y2="39"/><circle class="cls-1" cx="8" cy="14" r="2"/><circle class="cls-1" cx="16" cy="14" r="2"/><circle class="cls-1" cx="28" cy="33" r="2"/><circle class="cls-1" cx="36" cy="33" r="2"/></g></svg>