<svg xmlns="http://www.w3.org/2000/svg" viewBox="0 0 48 48"><defs><style>.cls-1{fill:none;stroke:#000;stroke-linejoin:round;stroke-width:2px;}</style></defs><title>10-case</title><g id="_10-case" data-name="10-case"><path class="cls-1" d="M11,17H47a0,0,0,0,1,0,0V45a2,2,0,0,1-2,2H13a2,2,0,0,1-2-2V17A0,0,0,0,1,11,17Z"/><path class="cls-1" d="M32,30.869C40.513,30.1,47,25.919,47,17"/><path class="cls-1" d="M11,17c0,8.919,6.487,13.1,15,13.869"/><rect class="cls-1" x="26" y="27" width="6" height="8"/><path class="cls-1" d="M23,17V13a2,2,0,0,1,2-2h8a2,2,0,0,1,2,2v4"/><path class="cls-1" d="M8,47H3a2,2,0,0,1-2-2V9L9,1H37a2,2,0,0,1,2,2V14"/><path class="cls-1" d="M9,1V7A2,2,0,0,1,7,9H1"/><path class="cls-1" d="M43,39v2a2,2,0,0,1-2,2H39"/><path class="cls-1" d="M19,43H17a2,2,0,0,1-2-2V39"/></g></svg>