<svg xmlns="http://www.w3.org/2000/svg" viewBox="0 0 48 48"><defs><style>.cls-1{fill:none;stroke:#000;stroke-linejoin:round;stroke-width:2px;}</style></defs><title>30-Global</title><g id="_30-Global" data-name="30-Global"><path class="cls-1" d="M25,39h7.112A1.939,1.939,0,0,0,34,37.013v-.026A1.945,1.945,0,0,0,32.112,35H28.3s0-2-6.65-2S15,35,15,35V45s15.05,2,16,2l16-8h0a2.8,2.8,0,0,0-3.759-2.633L35,40l-2-1"/><rect class="cls-1" x="9" y="33" width="6" height="13"/><polyline class="cls-1" points="9 34 1 34 1 45 9 45"/><circle class="cls-1" cx="24" cy="15" r="14"/><ellipse class="cls-1" cx="24" cy="15" rx="6" ry="14"/><line class="cls-1" x1="38" y1="15" x2="10" y2="15"/><line class="cls-1" x1="36" y1="8" x2="12" y2="8"/><line class="cls-1" x1="36" y1="22" x2="12" y2="22"/><polyline class="cls-1" points="4 31 4 19 7 22"/><line class="cls-1" x1="4" y1="19" x2="1" y2="22"/><polyline class="cls-1" points="44 31 44 19 47 22"/><line class="cls-1" x1="44" y1="19" x2="41" y2="22"/></g></svg>