<svg xmlns="http://www.w3.org/2000/svg" viewBox="0 0 48 48"><defs><style>.cls-1{fill:none;stroke:#000;stroke-linejoin:round;stroke-width:2px;}</style></defs><title>21-human management</title><g id="_21-human_management" data-name="21-human management"><path class="cls-1" d="M25,39h7.112A1.939,1.939,0,0,0,34,37.013v-.026A1.945,1.945,0,0,0,32.112,35H28.3s0-2-6.65-2S15,35,15,35V45s15.05,2,16,2l16-8h0a2.8,2.8,0,0,0-3.759-2.633L35,40l-2-1"/><rect class="cls-1" x="9" y="33" width="6" height="13"/><polyline class="cls-1" points="9 34 1 34 1 45 9 45"/><path class="cls-1" d="M13,11H5a4,4,0,0,0-4,4v8H5"/><circle class="cls-1" cx="9" cy="5" r="4"/><path class="cls-1" d="M35,11h8a4,4,0,0,1,4,4v8H43"/><circle class="cls-1" cx="39" cy="5" r="4"/><path class="cls-1" d="M19,23H16V15a4,4,0,0,1,4-4h8a4,4,0,0,1,4,4v8H29"/><circle class="cls-1" cx="24" cy="5" r="4"/><line class="cls-1" x1="20" y1="33" x2="20" y2="19"/><line class="cls-1" x1="28" y1="34" x2="28" y2="19"/><line class="cls-1" x1="5" y1="34" x2="5" y2="19"/><line class="cls-1" x1="43" y1="36" x2="43" y2="19"/><line class="cls-1" x1="24" y1="33" x2="24" y2="25"/><line class="cls-1" x1="9" y1="33" x2="9" y2="24"/><line class="cls-1" x1="39" y1="38" x2="39" y2="28"/></g></svg>