<svg width="137" height="88" viewBox="0 0 137 88" fill="none" xmlns="http://www.w3.org/2000/svg">
<path d="M0 0H21.9975C27.8329 0 33.4293 2.31812 37.5556 6.44439C41.6819 10.5707 44 16.1671 44 22.0025V22.0025C43.9987 27.8371 41.6799 33.4322 37.5538 37.5574C33.4277 41.6826 27.832 44 21.9975 44" fill="#7D6A54"/>
<path d="M137 88H92.9966C87.2184 88 81.4967 86.8618 76.1583 84.6503C70.82 82.4389 65.9695 79.1975 61.8839 75.1113C57.7984 71.0251 54.5578 66.1742 52.3471 60.8355C50.1365 55.4968 48.9991 49.7749 49 43.9966V43.9966C49 32.328 53.6353 21.1373 61.8863 12.8863C70.1373 4.63535 81.328 0 92.9966 0" fill="#7D6A54"/>
</svg>
