<svg width="410" height="111" viewBox="0 0 410 111" fill="none" xmlns="http://www.w3.org/2000/svg">
<g clip-path="url(#clip0_2_21)">
<path d="M156.468 36.3413C155.342 36.3413 154.409 36.0034 153.669 35.3276C152.961 34.6518 152.607 33.7991 152.607 32.7693C152.607 31.7395 152.961 30.9029 153.669 30.2593C154.409 29.5835 155.342 29.2456 156.468 29.2456C157.594 29.2456 158.512 29.5835 159.22 30.2593C159.96 30.9029 160.33 31.7395 160.33 32.7693C160.33 33.7991 159.96 34.6518 159.22 35.3276C158.512 36.0034 157.594 36.3413 156.468 36.3413ZM153.379 64V40.0581H159.557V64H153.379ZM181.453 64.5792C178.042 64.5792 175.113 63.8552 172.668 62.4071C170.222 60.9268 168.339 58.8834 167.02 56.2768C165.701 53.638 165.041 50.597 165.041 47.1538C165.041 43.7105 165.701 40.6695 167.02 38.0307C168.339 35.392 170.222 33.3325 172.668 31.8522C175.113 30.3719 178.042 29.6318 181.453 29.6318C185.507 29.6318 188.822 30.6454 191.396 32.6728C194.003 34.6679 195.628 37.4837 196.272 41.12H189.466C189.047 39.2858 188.146 37.8537 186.763 36.824C185.411 35.762 183.609 35.2311 181.356 35.2311C178.235 35.2311 175.789 36.293 174.019 38.4169C172.249 40.5408 171.364 43.4531 171.364 47.1538C171.364 50.8545 172.249 53.7668 174.019 55.8906C175.789 57.9823 178.235 59.0282 181.356 59.0282C183.609 59.0282 185.411 58.5455 186.763 57.5801C188.146 56.5825 189.047 55.2149 189.466 53.4771H196.272C195.628 56.9526 194.003 59.6718 191.396 61.6348C188.822 63.5977 185.507 64.5792 181.453 64.5792ZM213.084 64.5792C210.767 64.5792 208.676 64.0483 206.809 62.9863C204.975 61.9244 203.511 60.4602 202.417 58.5938C201.355 56.6951 200.824 54.5069 200.824 52.029C200.824 49.5512 201.371 47.379 202.465 45.5126C203.559 43.614 205.023 42.1337 206.858 41.0717C208.724 40.0098 210.816 39.4788 213.133 39.4788C215.417 39.4788 217.477 40.0098 219.311 41.0717C221.178 42.1337 222.642 43.614 223.704 45.5126C224.798 47.379 225.345 49.5512 225.345 52.029C225.345 54.5069 224.798 56.6951 223.704 58.5938C222.642 60.4602 221.178 61.9244 219.311 62.9863C217.445 64.0483 215.369 64.5792 213.084 64.5792ZM213.084 59.2213C214.693 59.2213 216.093 58.6259 217.284 57.4353C218.475 56.2124 219.07 54.4104 219.07 52.029C219.07 49.6477 218.475 47.8617 217.284 46.6711C216.093 45.4482 214.709 44.8368 213.133 44.8368C211.491 44.8368 210.076 45.4482 208.885 46.6711C207.726 47.8617 207.147 49.6477 207.147 52.029C207.147 54.4104 207.726 56.2124 208.885 57.4353C210.076 58.6259 211.475 59.2213 213.084 59.2213ZM230.869 64V40.0581H236.324L236.855 43.2922C237.627 42.1337 238.641 41.2166 239.896 40.5408C241.183 39.8328 242.663 39.4788 244.337 39.4788C248.037 39.4788 250.66 40.9108 252.205 43.7749C253.073 42.4555 254.232 41.4096 255.68 40.6373C257.16 39.865 258.769 39.4788 260.507 39.4788C263.628 39.4788 266.026 40.4121 267.699 42.2785C269.373 44.1449 270.209 46.8802 270.209 50.4844V64H264.031V51.0636C264.031 49.0041 263.628 47.4273 262.824 46.3332C262.052 45.2391 260.845 44.692 259.204 44.692C257.53 44.692 256.179 45.3034 255.149 46.5263C254.151 47.7491 253.653 49.4546 253.653 51.6429V64H247.474V51.0636C247.474 49.0041 247.072 47.4273 246.267 46.3332C245.463 45.2391 244.224 44.692 242.551 44.692C240.909 44.692 239.574 45.3034 238.544 46.5263C237.547 47.7491 237.048 49.4546 237.048 51.6429V64H230.869ZM276.075 74.6194V40.0581H281.578L282.254 43.4852C283.026 42.4233 284.04 41.4901 285.295 40.6856C286.582 39.8811 288.239 39.4788 290.267 39.4788C292.519 39.4788 294.53 40.0259 296.3 41.12C298.07 42.2141 299.47 43.7105 300.5 45.6091C301.53 47.5077 302.044 49.6638 302.044 52.0773C302.044 54.4908 301.53 56.6469 300.5 58.5455C299.47 60.4119 298.07 61.8922 296.3 62.9863C294.53 64.0483 292.519 64.5792 290.267 64.5792C288.465 64.5792 286.888 64.2413 285.536 63.5656C284.185 62.8898 283.09 61.9405 282.254 60.7176V74.6194H276.075ZM288.963 59.173C290.926 59.173 292.551 58.5133 293.839 57.1939C295.126 55.8745 295.769 54.169 295.769 52.0773C295.769 49.9856 295.126 48.264 293.839 46.9124C292.551 45.5609 290.926 44.8851 288.963 44.8851C286.968 44.8851 285.327 45.5609 284.04 46.9124C282.785 48.2318 282.157 49.9373 282.157 52.029C282.157 54.1207 282.785 55.8424 284.04 57.1939C285.327 58.5133 286.968 59.173 288.963 59.173ZM307.564 64V29.2456H313.742V64H307.564ZM323.048 74.6194L328.599 62.4071H327.151L317.835 40.0581H324.545L331.254 56.9043L338.253 40.0581H344.818L329.613 74.6194H323.048Z" fill="#7C6A54"/>
<path d="M156.976 87.1132C156.643 87.1132 156.348 87.0473 156.09 86.9154C155.838 86.7835 155.637 86.5972 155.488 86.3564L155.393 87.01H154.576V80.818H155.488V83.4066C155.625 83.2059 155.815 83.0282 156.055 82.8734C156.296 82.7186 156.606 82.6412 156.984 82.6412C157.397 82.6412 157.761 82.7387 158.076 82.9336C158.392 83.1285 158.638 83.3951 158.816 83.7334C158.999 84.0717 159.091 84.4558 159.091 84.8858C159.091 85.3158 158.999 85.6999 158.816 86.0382C158.638 86.3707 158.392 86.6345 158.076 86.8294C157.761 87.0186 157.394 87.1132 156.976 87.1132ZM156.821 86.322C157.211 86.322 157.532 86.1901 157.784 85.9264C158.036 85.6569 158.162 85.3072 158.162 84.8772C158.162 84.5963 158.105 84.3469 157.99 84.129C157.876 83.9111 157.718 83.742 157.517 83.6216C157.317 83.4955 157.085 83.4324 156.821 83.4324C156.431 83.4324 156.11 83.5671 155.858 83.8366C155.611 84.1061 155.488 84.4529 155.488 84.8772C155.488 85.3072 155.611 85.6569 155.858 85.9264C156.11 86.1901 156.431 86.322 156.821 86.322ZM160.215 88.902L161.238 86.6574H160.989L159.303 82.7444H160.292L161.599 85.9006L162.967 82.7444H163.93L161.178 88.902H160.215ZM169.564 87.1132C168.968 87.1132 168.452 86.9842 168.016 86.7262C167.586 86.4625 167.253 86.0984 167.018 85.634C166.783 85.1639 166.666 84.6221 166.666 84.0086C166.666 83.3894 166.783 82.8476 167.018 82.3832C167.253 81.9131 167.586 81.5461 168.016 81.2824C168.452 81.0187 168.968 80.8868 169.564 80.8868C170.269 80.8868 170.845 81.0588 171.293 81.4028C171.74 81.7468 172.024 82.2284 172.144 82.8476H171.129C171.049 82.4979 170.877 82.2198 170.613 82.0134C170.349 81.807 169.997 81.7038 169.555 81.7038C168.953 81.7038 168.477 81.9102 168.128 82.323C167.778 82.7301 167.603 83.2919 167.603 84.0086C167.603 84.7195 167.778 85.2785 168.128 85.6856C168.477 86.0927 168.953 86.2962 169.555 86.2962C169.997 86.2962 170.349 86.1987 170.613 86.0038C170.877 85.8089 171.049 85.5423 171.129 85.204H172.144C172.024 85.8003 171.74 86.2675 171.293 86.6058C170.845 86.9441 170.269 87.1132 169.564 87.1132ZM175.924 87.1132C175.327 87.1132 174.806 86.9813 174.359 86.7176C173.911 86.4539 173.562 86.0898 173.309 85.6254C173.057 85.1553 172.931 84.6135 172.931 84C172.931 83.3865 173.057 82.8476 173.309 82.3832C173.562 81.9131 173.911 81.5461 174.359 81.2824C174.806 81.0187 175.327 80.8868 175.924 80.8868C176.52 80.8868 177.042 81.0187 177.489 81.2824C177.936 81.5461 178.283 81.9131 178.53 82.3832C178.782 82.8476 178.908 83.3865 178.908 84C178.908 84.6135 178.782 85.1553 178.53 85.6254C178.283 86.0898 177.936 86.4539 177.489 86.7176C177.042 86.9813 176.52 87.1132 175.924 87.1132ZM175.924 86.2962C176.337 86.2962 176.695 86.2045 176.999 86.021C177.308 85.8375 177.549 85.5738 177.721 85.2298C177.893 84.8858 177.979 84.4759 177.979 84C177.979 83.5241 177.893 83.1142 177.721 82.7702C177.549 82.4262 177.308 82.1625 176.999 81.979C176.695 81.7955 176.337 81.7038 175.924 81.7038C175.511 81.7038 175.15 81.7955 174.84 81.979C174.531 82.1625 174.29 82.4262 174.118 82.7702C173.951 83.1142 173.868 83.5241 173.868 84C173.868 84.4759 173.951 84.8858 174.118 85.2298C174.29 85.5738 174.531 85.8375 174.84 86.021C175.15 86.2045 175.511 86.2962 175.924 86.2962ZM179.923 87.01V80.99H182.03C182.501 80.99 182.89 81.0703 183.2 81.2308C183.51 81.3856 183.739 81.6006 183.888 81.8758C184.043 82.1453 184.12 82.452 184.12 82.796C184.12 83.1228 184.046 83.4238 183.897 83.699C183.753 83.9685 183.527 84.1835 183.217 84.344C182.908 84.5045 182.512 84.5848 182.03 84.5848H180.835V87.01H179.923ZM180.835 83.8366H181.987C182.417 83.8366 182.724 83.7449 182.908 83.5614C183.097 83.3722 183.191 83.1171 183.191 82.796C183.191 82.4635 183.097 82.2055 182.908 82.022C182.724 81.8328 182.417 81.7382 181.987 81.7382H180.835V83.8366ZM185.021 87.01V80.99H187.128C187.598 80.99 187.988 81.0703 188.298 81.2308C188.608 81.3856 188.837 81.6006 188.986 81.8758C189.141 82.1453 189.218 82.452 189.218 82.796C189.218 83.1228 189.144 83.4238 188.995 83.699C188.851 83.9685 188.625 84.1835 188.315 84.344C188.006 84.5045 187.61 84.5848 187.128 84.5848H185.933V87.01H185.021ZM185.933 83.8366H187.085C187.515 83.8366 187.822 83.7449 188.006 83.5614C188.195 83.3722 188.289 83.1171 188.289 82.796C188.289 82.4635 188.195 82.2055 188.006 82.022C187.822 81.8328 187.515 81.7382 187.085 81.7382H185.933V83.8366ZM190.119 87.01V80.99H193.946V81.7296H191.031V83.6044H193.688V84.3268H191.031V86.2704H193.946V87.01H190.119ZM195.032 87.01V80.99H197.105C197.581 80.99 197.971 81.0703 198.274 81.2308C198.584 81.3913 198.813 81.6092 198.962 81.8844C199.112 82.1539 199.186 82.4549 199.186 82.7874C199.186 83.1601 199.086 83.4983 198.885 83.8022C198.69 84.1061 198.383 84.3239 197.965 84.4558L199.246 87.01H198.188L197.019 84.5848H195.944V87.01H195.032ZM195.944 83.8968H197.053C197.466 83.8968 197.767 83.7965 197.956 83.5958C198.151 83.3951 198.249 83.1343 198.249 82.8132C198.249 82.4921 198.154 82.237 197.965 82.0478C197.776 81.8529 197.469 81.7554 197.045 81.7554H195.944V83.8968ZM200.265 87.01V80.99H202.535C203.16 80.99 203.633 81.1362 203.954 81.4286C204.275 81.721 204.436 82.0879 204.436 82.5294C204.436 82.9135 204.332 83.2203 204.126 83.4496C203.92 83.6732 203.67 83.8251 203.378 83.9054C203.607 83.9513 203.811 84.043 203.988 84.1806C204.172 84.3182 204.315 84.4902 204.418 84.6966C204.522 84.903 204.573 85.1266 204.573 85.3674C204.573 85.677 204.496 85.9579 204.341 86.2102C204.192 86.4567 203.971 86.6517 203.679 86.795C203.386 86.9383 203.028 87.01 202.604 87.01H200.265ZM201.176 83.57H202.423C202.773 83.57 203.039 83.4897 203.223 83.3292C203.406 83.1629 203.498 82.9365 203.498 82.6498C203.498 82.3689 203.406 82.1453 203.223 81.979C203.045 81.8127 202.773 81.7296 202.406 81.7296H201.176V83.57ZM201.176 86.2618H202.483C202.85 86.2618 203.134 86.1758 203.335 86.0038C203.541 85.8318 203.644 85.591 203.644 85.2814C203.644 84.9718 203.538 84.7281 203.326 84.5504C203.114 84.3669 202.827 84.2752 202.466 84.2752H201.176V86.2618ZM205.572 87.01V80.99H209.399V81.7296H206.484V83.6044H209.141V84.3268H206.484V86.2704H209.399V87.01H205.572ZM210.485 87.01V80.99H211.397V86.2876H214.132V87.01H210.485ZM215.113 87.01V80.99H216.025V86.2876H218.759V87.01H215.113ZM221.907 87.01V80.99H222.982L225.02 84.9976L227.05 80.99H228.125V87.01H227.213V82.5638L225.373 86.15H224.668L222.819 82.5724V87.01H221.907ZM228.961 87.01L231.18 80.99H232.178L234.379 87.01H233.416L232.9 85.5394H230.44L229.924 87.01H228.961ZM230.698 84.817H232.642L231.67 82.0736L230.698 84.817ZM235.219 87.01V80.99H236.13L239.149 85.5222V80.99H240.061V87.01H239.149L236.13 82.4778V87.01H235.219ZM240.895 87.01L243.114 80.99H244.112L246.313 87.01H245.35L244.834 85.5394H242.375L241.859 87.01H240.895ZM242.633 84.817H244.576L243.604 82.0736L242.633 84.817ZM249.423 87.1132C248.855 87.1132 248.36 86.9842 247.935 86.7262C247.511 86.4682 247.181 86.107 246.946 85.6426C246.711 85.1782 246.594 84.6364 246.594 84.0172C246.594 83.4037 246.714 82.8619 246.955 82.3918C247.196 81.9217 247.537 81.5547 247.978 81.291C248.425 81.0215 248.953 80.8868 249.561 80.8868C250.249 80.8868 250.822 81.0531 251.281 81.3856C251.739 81.7181 252.037 82.1768 252.175 82.7616H251.143C251.051 82.4405 250.871 82.1883 250.601 82.0048C250.332 81.8213 249.985 81.7296 249.561 81.7296C248.93 81.7296 248.434 81.9331 248.073 82.3402C247.712 82.7473 247.531 83.3091 247.531 84.0258C247.531 84.7425 247.709 85.3015 248.064 85.7028C248.42 86.1041 248.893 86.3048 249.483 86.3048C250.08 86.3048 250.527 86.1357 250.825 85.7974C251.129 85.4591 251.306 85.0091 251.358 84.4472H249.724V83.742H252.278V87.01H251.444L251.367 86.1242C251.166 86.4395 250.914 86.6832 250.61 86.8552C250.306 87.0272 249.91 87.1132 249.423 87.1132ZM253.385 87.01V80.99H257.212V81.7296H254.296V83.6044H256.954V84.3268H254.296V86.2704H257.212V87.01H253.385ZM258.298 87.01V80.99H260.25C260.955 80.99 261.534 81.1133 261.987 81.3598C262.446 81.6063 262.784 81.9561 263.002 82.409C263.226 82.8562 263.337 83.3894 263.337 84.0086C263.337 84.6221 263.226 85.1553 263.002 85.6082C262.784 86.0554 262.446 86.4023 261.987 86.6488C261.534 86.8896 260.955 87.01 260.25 87.01H258.298ZM259.209 86.236H260.216C260.76 86.236 261.19 86.1471 261.506 85.9694C261.827 85.7917 262.056 85.5365 262.194 85.204C262.337 84.8715 262.409 84.473 262.409 84.0086C262.409 83.5442 262.337 83.1429 262.194 82.8046C262.056 82.4663 261.827 82.2083 261.506 82.0306C261.19 81.8471 260.76 81.7554 260.216 81.7554H259.209V86.236ZM269.195 87.1132C268.598 87.1132 268.082 86.9842 267.647 86.7262C267.217 86.4625 266.884 86.0984 266.649 85.634C266.414 85.1639 266.296 84.6221 266.296 84.0086C266.296 83.3894 266.414 82.8476 266.649 82.3832C266.884 81.9131 267.217 81.5461 267.647 81.2824C268.082 81.0187 268.598 80.8868 269.195 80.8868C269.9 80.8868 270.476 81.0588 270.923 81.4028C271.37 81.7468 271.654 82.2284 271.775 82.8476H270.76C270.68 82.4979 270.508 82.2198 270.244 82.0134C269.98 81.807 269.627 81.7038 269.186 81.7038C268.584 81.7038 268.108 81.9102 267.758 82.323C267.409 82.7301 267.234 83.2919 267.234 84.0086C267.234 84.7195 267.409 85.2785 267.758 85.6856C268.108 86.0927 268.584 86.2962 269.186 86.2962C269.627 86.2962 269.98 86.1987 270.244 86.0038C270.508 85.8089 270.68 85.5423 270.76 85.204H271.775C271.654 85.8003 271.37 86.2675 270.923 86.6058C270.476 86.9441 269.9 87.1132 269.195 87.1132ZM275.554 87.1132C274.958 87.1132 274.436 86.9813 273.989 86.7176C273.542 86.4539 273.192 86.0898 272.94 85.6254C272.688 85.1553 272.562 84.6135 272.562 84C272.562 83.3865 272.688 82.8476 272.94 82.3832C273.192 81.9131 273.542 81.5461 273.989 81.2824C274.436 81.0187 274.958 80.8868 275.554 80.8868C276.151 80.8868 276.672 81.0187 277.12 81.2824C277.567 81.5461 277.914 81.9131 278.16 82.3832C278.412 82.8476 278.539 83.3865 278.539 84C278.539 84.6135 278.412 85.1553 278.16 85.6254C277.914 86.0898 277.567 86.4539 277.12 86.7176C276.672 86.9813 276.151 87.1132 275.554 87.1132ZM275.554 86.2962C275.967 86.2962 276.326 86.2045 276.629 86.021C276.939 85.8375 277.18 85.5738 277.352 85.2298C277.524 84.8858 277.61 84.4759 277.61 84C277.61 83.5241 277.524 83.1142 277.352 82.7702C277.18 82.4262 276.939 82.1625 276.629 81.979C276.326 81.7955 275.967 81.7038 275.554 81.7038C275.142 81.7038 274.78 81.7955 274.471 81.979C274.161 82.1625 273.92 82.4262 273.748 82.7702C273.582 83.1142 273.499 83.5241 273.499 84C273.499 84.4759 273.582 84.8858 273.748 85.2298C273.92 85.5738 274.161 85.8375 274.471 86.021C274.78 86.2045 275.142 86.2962 275.554 86.2962ZM279.554 87.01V80.99H281.627C282.103 80.99 282.492 81.0703 282.796 81.2308C283.106 81.3913 283.335 81.6092 283.484 81.8844C283.633 82.1539 283.708 82.4549 283.708 82.7874C283.708 83.1601 283.608 83.4983 283.407 83.8022C283.212 84.1061 282.905 84.3239 282.487 84.4558L283.768 87.01H282.71L281.541 84.5848H280.466V87.01H279.554ZM280.466 83.8968H281.575C281.988 83.8968 282.289 83.7965 282.478 83.5958C282.673 83.3951 282.771 83.1343 282.771 82.8132C282.771 82.4921 282.676 82.237 282.487 82.0478C282.298 81.8529 281.991 81.7554 281.567 81.7554H280.466V83.8968ZM284.786 87.01V80.99H286.893C287.364 80.99 287.753 81.0703 288.063 81.2308C288.373 81.3856 288.602 81.6006 288.751 81.8758C288.906 82.1453 288.983 82.452 288.983 82.796C288.983 83.1228 288.909 83.4238 288.76 83.699C288.616 83.9685 288.39 84.1835 288.08 84.344C287.771 84.5045 287.375 84.5848 286.893 84.5848H285.698V87.01H284.786ZM285.698 83.8366H286.85C287.28 83.8366 287.587 83.7449 287.771 83.5614C287.96 83.3722 288.054 83.1171 288.054 82.796C288.054 82.4635 287.96 82.2055 287.771 82.022C287.587 81.8328 287.28 81.7382 286.85 81.7382H285.698V83.8366ZM292.662 87.1132C292.066 87.1132 291.544 86.9813 291.097 86.7176C290.65 86.4539 290.3 86.0898 290.048 85.6254C289.795 85.1553 289.669 84.6135 289.669 84C289.669 83.3865 289.795 82.8476 290.048 82.3832C290.3 81.9131 290.65 81.5461 291.097 81.2824C291.544 81.0187 292.066 80.8868 292.662 80.8868C293.258 80.8868 293.78 81.0187 294.227 81.2824C294.674 81.5461 295.021 81.9131 295.268 82.3832C295.52 82.8476 295.646 83.3865 295.646 84C295.646 84.6135 295.52 85.1553 295.268 85.6254C295.021 86.0898 294.674 86.4539 294.227 86.7176C293.78 86.9813 293.258 87.1132 292.662 87.1132ZM292.662 86.2962C293.075 86.2962 293.433 86.2045 293.737 86.021C294.047 85.8375 294.287 85.5738 294.459 85.2298C294.631 84.8858 294.717 84.4759 294.717 84C294.717 83.5241 294.631 83.1142 294.459 82.7702C294.287 82.4262 294.047 82.1625 293.737 81.979C293.433 81.7955 293.075 81.7038 292.662 81.7038C292.249 81.7038 291.888 81.7955 291.578 81.979C291.269 82.1625 291.028 82.4262 290.856 82.7702C290.69 83.1142 290.607 83.5241 290.607 84C290.607 84.4759 290.69 84.8858 290.856 85.2298C291.028 85.5738 291.269 85.8375 291.578 86.021C291.888 86.2045 292.249 86.2962 292.662 86.2962ZM296.662 87.01V80.99H298.734C299.21 80.99 299.6 81.0703 299.904 81.2308C300.214 81.3913 300.443 81.6092 300.592 81.8844C300.741 82.1539 300.816 82.4549 300.816 82.7874C300.816 83.1601 300.715 83.4983 300.515 83.8022C300.32 84.1061 300.013 84.3239 299.594 84.4558L300.876 87.01H299.818L298.648 84.5848H297.573V87.01H296.662ZM297.573 83.8968H298.683C299.096 83.8968 299.397 83.7965 299.586 83.5958C299.781 83.3951 299.878 83.1343 299.878 82.8132C299.878 82.4921 299.784 82.237 299.594 82.0478C299.405 81.8529 299.098 81.7554 298.674 81.7554H297.573V83.8968ZM301.507 87.01L303.726 80.99H304.723L306.925 87.01H305.962L305.446 85.5394H302.986L302.47 87.01H301.507ZM303.244 84.817H305.188L304.216 82.0736L303.244 84.817ZM308.52 87.01V81.7296H306.74V80.99H311.203V81.7296H309.431V87.01H308.52ZM312.056 87.01V80.99H315.883V81.7296H312.968V83.6044H315.625V84.3268H312.968V86.2704H315.883V87.01H312.056ZM321.123 87.1132C320.681 87.1132 320.294 87.0358 319.962 86.881C319.629 86.7262 319.368 86.5055 319.179 86.2188C318.996 85.9321 318.901 85.591 318.895 85.1954H319.858C319.864 85.5165 319.976 85.7888 320.194 86.0124C320.412 86.236 320.718 86.3478 321.114 86.3478C321.464 86.3478 321.736 86.2647 321.931 86.0984C322.132 85.9264 322.232 85.7085 322.232 85.4448C322.232 85.2327 322.183 85.0607 322.086 84.9288C321.994 84.7969 321.865 84.688 321.699 84.602C321.538 84.516 321.352 84.4386 321.14 84.3698C320.928 84.301 320.704 84.2265 320.469 84.1462C320.005 83.9914 319.655 83.7907 319.42 83.5442C319.19 83.2977 319.076 82.9737 319.076 82.5724C319.07 82.2341 319.147 81.9389 319.308 81.6866C319.474 81.4343 319.704 81.2394 319.996 81.1018C320.294 80.9585 320.641 80.8868 321.037 80.8868C321.426 80.8868 321.768 80.9585 322.06 81.1018C322.358 81.2451 322.59 81.4458 322.757 81.7038C322.923 81.9561 323.009 82.2513 323.015 82.5896H322.051C322.051 82.4348 322.011 82.2886 321.931 82.151C321.851 82.0077 321.733 81.8901 321.578 81.7984C321.424 81.7067 321.234 81.6608 321.011 81.6608C320.724 81.6551 320.486 81.7267 320.297 81.8758C320.114 82.0249 320.022 82.2313 320.022 82.495C320.022 82.7301 320.091 82.9107 320.228 83.0368C320.366 83.1629 320.555 83.269 320.796 83.355C321.037 83.4353 321.312 83.5299 321.621 83.6388C321.92 83.7363 322.186 83.8538 322.421 83.9914C322.656 84.129 322.843 84.3096 322.98 84.5332C323.124 84.7568 323.195 85.0406 323.195 85.3846C323.195 85.6885 323.118 85.9723 322.963 86.236C322.808 86.494 322.576 86.7061 322.266 86.8724C321.957 87.0329 321.576 87.1132 321.123 87.1132ZM324.192 87.01V80.99H328.019V81.7296H325.103V83.6044H327.761V84.3268H325.103V86.2704H328.019V87.01H324.192ZM329.105 87.01V80.99H331.178C331.653 80.99 332.043 81.0703 332.347 81.2308C332.657 81.3913 332.886 81.6092 333.035 81.8844C333.184 82.1539 333.259 82.4549 333.259 82.7874C333.259 83.1601 333.158 83.4983 332.958 83.8022C332.763 84.1061 332.456 84.3239 332.038 84.4558L333.319 87.01H332.261L331.092 84.5848H330.017V87.01H329.105ZM330.017 83.8968H331.126C331.539 83.8968 331.84 83.7965 332.029 83.5958C332.224 83.3951 332.321 83.1343 332.321 82.8132C332.321 82.4921 332.227 82.237 332.038 82.0478C331.848 81.8529 331.542 81.7554 331.117 81.7554H330.017V83.8968ZM335.891 87.01L333.663 80.99H334.635L336.441 86.064L338.256 80.99H339.219L336.991 87.01H335.891ZM339.989 87.01V80.99H340.901V87.01H339.989ZM344.806 87.1132C344.209 87.1132 343.693 86.9842 343.258 86.7262C342.828 86.4625 342.495 86.0984 342.26 85.634C342.025 85.1639 341.908 84.6221 341.908 84.0086C341.908 83.3894 342.025 82.8476 342.26 82.3832C342.495 81.9131 342.828 81.5461 343.258 81.2824C343.693 81.0187 344.209 80.8868 344.806 80.8868C345.511 80.8868 346.087 81.0588 346.534 81.4028C346.982 81.7468 347.265 82.2284 347.386 82.8476H346.371C346.291 82.4979 346.119 82.2198 345.855 82.0134C345.591 81.807 345.239 81.7038 344.797 81.7038C344.195 81.7038 343.719 81.9102 343.37 82.323C343.02 82.7301 342.845 83.2919 342.845 84.0086C342.845 84.7195 343.02 85.2785 343.37 85.6856C343.719 86.0927 344.195 86.2962 344.797 86.2962C345.239 86.2962 345.591 86.1987 345.855 86.0038C346.119 85.8089 346.291 85.5423 346.371 85.204H347.386C347.265 85.8003 346.982 86.2675 346.534 86.6058C346.087 86.9441 345.511 87.1132 344.806 87.1132ZM348.388 87.01V80.99H352.215V81.7296H349.299V83.6044H351.957V84.3268H349.299V86.2704H352.215V87.01H348.388ZM355.287 87.1132C354.846 87.1132 354.459 87.0358 354.126 86.881C353.794 86.7262 353.533 86.5055 353.344 86.2188C353.16 85.9321 353.066 85.591 353.06 85.1954H354.023C354.029 85.5165 354.141 85.7888 354.359 86.0124C354.577 86.236 354.883 86.3478 355.279 86.3478C355.629 86.3478 355.901 86.2647 356.096 86.0984C356.297 85.9264 356.397 85.7085 356.397 85.4448C356.397 85.2327 356.348 85.0607 356.251 84.9288C356.159 84.7969 356.03 84.688 355.864 84.602C355.703 84.516 355.517 84.4386 355.305 84.3698C355.093 84.301 354.869 84.2265 354.634 84.1462C354.169 83.9914 353.82 83.7907 353.585 83.5442C353.355 83.2977 353.241 82.9737 353.241 82.5724C353.235 82.2341 353.312 81.9389 353.473 81.6866C353.639 81.4343 353.868 81.2394 354.161 81.1018C354.459 80.9585 354.806 80.8868 355.201 80.8868C355.591 80.8868 355.932 80.9585 356.225 81.1018C356.523 81.2451 356.755 81.4458 356.921 81.7038C357.088 81.9561 357.174 82.2513 357.179 82.5896H356.216C356.216 82.4348 356.176 82.2886 356.096 82.151C356.016 82.0077 355.898 81.8901 355.743 81.7984C355.588 81.7067 355.399 81.6608 355.176 81.6608C354.889 81.6551 354.651 81.7267 354.462 81.8758C354.278 82.0249 354.187 82.2313 354.187 82.495C354.187 82.7301 354.255 82.9107 354.393 83.0368C354.531 83.1629 354.72 83.269 354.961 83.355C355.201 83.4353 355.477 83.5299 355.786 83.6388C356.084 83.7363 356.351 83.8538 356.586 83.9914C356.821 84.129 357.007 84.3096 357.145 84.5332C357.288 84.7568 357.36 85.0406 357.36 85.3846C357.36 85.6885 357.283 85.9723 357.128 86.236C356.973 86.494 356.741 86.7061 356.431 86.8724C356.122 87.0329 355.74 87.1132 355.287 87.1132Z" fill="#7C6A54"/>
<path d="M0 12H21.9975C27.8329 12 33.4293 14.3181 37.5556 18.4444C41.6819 22.5707 44 28.1671 44 34.0025V34.0025C43.9987 39.8371 41.6799 45.4322 37.5538 49.5574C33.4277 53.6826 27.832 56 21.9975 56" fill="#7D6A54"/>
<path d="M137 100H92.9966C87.2184 100 81.4967 98.8618 76.1583 96.6503C70.82 94.4389 65.9695 91.1975 61.8839 87.1113C57.7984 83.0251 54.5578 78.1742 52.3471 72.8355C50.1365 67.4968 48.9991 61.7749 49 55.9966V55.9966C49 44.328 53.6353 33.1373 61.8863 24.8863C70.1373 16.6353 81.328 12 92.9966 12" fill="#7D6A54"/>
</g>
<defs>
<clipPath id="clip0_2_21">
<rect width="410" height="111" fill="white"/>
</clipPath>
</defs>
</svg>
