<svg width="708" height="148" viewBox="0 0 708 148" fill="none" xmlns="http://www.w3.org/2000/svg">
<path d="M262.225 47.8957C259.574 47.8957 257.377 47.1004 255.635 45.5097C253.969 43.919 253.135 41.9118 253.135 39.4879C253.135 37.064 253.969 35.0945 255.635 33.5796C257.377 31.9889 259.574 31.1936 262.225 31.1936C264.876 31.1936 267.035 31.9889 268.701 33.5796C270.444 35.0945 271.315 37.064 271.315 39.4879C271.315 41.9118 270.444 43.919 268.701 45.5097C267.035 47.1004 264.876 47.8957 262.225 47.8957ZM254.953 113V56.6445H269.497V113H254.953ZM321.035 114.363C313.006 114.363 306.113 112.659 300.356 109.251C294.599 105.766 290.168 100.956 287.063 94.8208C283.957 88.6096 282.404 81.4515 282.404 73.3466C282.404 65.2417 283.957 58.0837 287.063 51.8724C290.168 45.6612 294.599 40.8134 300.356 37.3291C306.113 33.8447 313.006 32.1026 321.035 32.1026C330.579 32.1026 338.381 34.4886 344.441 39.2606C350.576 43.9569 354.401 50.5847 355.916 59.1441H339.896C338.911 54.8266 336.79 51.4558 333.533 49.0319C330.352 46.5323 326.11 45.2825 320.808 45.2825C313.46 45.2825 307.704 47.7821 303.537 52.7814C299.371 57.7807 297.288 64.6358 297.288 73.3466C297.288 82.0575 299.371 88.9126 303.537 93.9118C307.704 98.8354 313.46 101.297 320.808 101.297C326.11 101.297 330.352 100.161 333.533 97.8885C336.79 95.5404 338.911 92.3212 339.896 88.2308H355.916C354.401 96.4115 350.576 102.812 344.441 107.433C338.381 112.053 330.579 114.363 321.035 114.363ZM395.491 114.363C390.037 114.363 385.113 113.114 380.72 110.614C376.403 108.114 372.956 104.668 370.381 100.275C367.881 95.8055 366.631 90.6547 366.631 84.8222C366.631 78.9897 367.919 73.8768 370.494 69.4835C373.07 65.0145 376.516 61.5301 380.834 59.0305C385.227 56.5309 390.151 55.281 395.604 55.281C400.982 55.281 405.83 56.5309 410.148 59.0305C414.541 61.5301 417.987 65.0145 420.487 69.4835C423.062 73.8768 424.35 78.9897 424.35 84.8222C424.35 90.6547 423.062 95.8055 420.487 100.275C417.987 104.668 414.541 108.114 410.148 110.614C405.754 113.114 400.869 114.363 395.491 114.363ZM395.491 101.752C399.278 101.752 402.573 100.35 405.376 97.5477C408.178 94.6693 409.58 90.4275 409.58 84.8222C409.58 79.217 408.178 75.013 405.376 72.2104C402.573 69.332 399.316 67.8929 395.604 67.8929C391.741 67.8929 388.408 69.332 385.606 72.2104C382.879 75.013 381.515 79.217 381.515 84.8222C381.515 90.4275 382.879 94.6693 385.606 97.5477C388.408 100.35 391.703 101.752 395.491 101.752ZM437.353 113V56.6445H450.193L451.442 64.257C453.26 61.5301 455.646 59.3714 458.6 57.7807C461.63 56.1142 465.115 55.281 469.053 55.281C477.764 55.281 483.938 58.6518 487.573 65.3932C489.619 62.2876 492.346 59.8258 495.754 58.0079C499.238 56.19 503.026 55.281 507.116 55.281C514.464 55.281 520.107 57.4777 524.046 61.871C527.984 66.2643 529.954 72.7028 529.954 81.1864V113H515.41V82.5498C515.41 77.7021 514.464 73.9905 512.57 71.4151C510.752 68.8397 507.911 67.552 504.048 67.552C500.11 67.552 496.928 68.9912 494.504 71.8696C492.156 74.7479 490.982 78.7625 490.982 83.9133V113H476.439V82.5498C476.439 77.7021 475.492 73.9905 473.598 71.4151C471.705 68.8397 468.788 67.552 464.849 67.552C460.986 67.552 457.843 68.9912 455.419 71.8696C453.071 74.7479 451.897 78.7625 451.897 83.9133V113H437.353ZM543.761 137.996V56.6445H556.714L558.305 64.7115C560.123 62.2119 562.509 60.0152 565.463 58.1215C568.493 56.2279 572.393 55.281 577.166 55.281C582.468 55.281 587.202 56.5687 591.368 59.1441C595.534 61.7195 598.829 65.2417 601.253 69.7108C603.677 74.1798 604.889 79.2549 604.889 84.9359C604.889 90.6169 603.677 95.6919 601.253 100.161C598.829 104.554 595.534 108.039 591.368 110.614C587.202 113.114 582.468 114.363 577.166 114.363C572.924 114.363 569.212 113.568 566.031 111.977C562.849 110.387 560.274 108.152 558.305 105.274V137.996H543.761ZM574.098 101.638C578.718 101.638 582.544 100.085 585.573 96.9796C588.603 93.874 590.118 89.8594 590.118 84.9359C590.118 80.0123 588.603 75.9599 585.573 72.7785C582.544 69.5972 578.718 68.0065 574.098 68.0065C569.401 68.0065 565.538 69.5972 562.509 72.7785C559.554 75.8841 558.077 79.8987 558.077 84.8222C558.077 89.7458 559.554 93.7982 562.509 96.9796C565.538 100.085 569.401 101.638 574.098 101.638ZM617.881 113V31.1936H632.424V113H617.881ZM654.329 137.996L667.395 109.251H663.986L642.058 56.6445H657.851L673.644 96.2979L690.119 56.6445H705.571L669.781 137.996H654.329Z" fill="#7D6A54"/>
<path d="M0 8H32.9962C41.7493 8 50.144 11.4772 56.3334 17.6666C62.5228 23.856 66 32.2507 66 41.0038C65.998 49.7556 62.5199 58.1483 56.3307 64.3361C50.1415 70.5239 41.748 74 32.9962 74" fill="#7D6A54"/>
<path d="M204.78 139.09H139.23C130.622 139.09 122.099 137.394 114.147 134.1C106.194 130.806 98.9688 125.977 92.8827 119.89C86.7966 113.803 81.9692 106.577 78.6761 98.6241C75.383 90.6713 73.6887 82.1477 73.69 73.54C73.69 56.1577 80.5951 39.4874 92.8862 27.1962C105.177 14.9051 121.848 8 139.23 8" fill="#7D6A54"/>
</svg>
