<svg xmlns="http://www.w3.org/2000/svg" viewBox="0 0 48 48"><defs><style>.cls-1{fill:none;stroke:#000;stroke-linejoin:round;stroke-width:2px;}</style></defs><title>04-law book</title><g id="_04-law_book" data-name="04-law book"><path class="cls-1" d="M13,33a6,6,0,0,0,12,0Z"/><polyline class="cls-1" points="13 33 19 23 25 33"/><path class="cls-1" d="M35,33a6,6,0,0,0,12,0Z"/><polyline class="cls-1" points="35 33 41 23 47 33"/><line class="cls-1" x1="19" y1="23" x2="41" y2="23"/><circle class="cls-1" cx="30" cy="17" r="2"/><line class="cls-1" x1="30" y1="19" x2="30" y2="43"/><path class="cls-1" d="M24,43H36a2,2,0,0,1,2,2v2a0,0,0,0,1,0,0H22a0,0,0,0,1,0,0V45A2,2,0,0,1,24,43Z"/><path class="cls-1" d="M19,47H5a4,4,0,0,1-4-4V5A4,4,0,0,1,5,1H37V20"/><line class="cls-1" x1="5" y1="1" x2="5" y2="47"/><path class="cls-1" d="M32,12V8a2,2,0,0,0-2-2H12a2,2,0,0,0-2,2v8a2,2,0,0,0,2,2H25"/><line class="cls-1" x1="14" y1="10" x2="28" y2="10"/><line class="cls-1" x1="14" y1="14" x2="25" y2="14"/></g></svg>