<svg width="340" height="303" viewBox="0 0 340 303" fill="none" xmlns="http://www.w3.org/2000/svg">
<g clip-path="url(#clip0_14_2)">
<path d="M328.83 172.66H314.85V285.69H328.83V172.66Z" fill="#7D6A54"/>
<path d="M283.67 159.56V295.62H85.12V159.56L108.21 143.06L106.7 182.06L165.25 239.65L178.86 231C180.655 229.853 182.745 229.252 184.875 229.269C187.005 229.287 189.084 229.923 190.86 231.1L203 239.18L247.39 192.65L282.48 158.75L283.67 159.56Z" fill="#7D6A54"/>
<path d="M40.6 261.28C39.089 261.281 37.6354 260.701 36.54 259.66L4.64 228.85L6.72 226.69L38.62 257.49C39.1581 258.006 39.8746 258.294 40.62 258.294C41.3654 258.294 42.0819 258.006 42.62 257.49L64.34 236.76L66.41 238.93L44.66 259.65C43.5684 260.698 42.1132 261.282 40.6 261.28Z" fill="white"/>
<path d="M28.89 251.075L4.86209 276.096L7.02593 278.174L31.0538 253.153L28.89 251.075Z" fill="white"/>
<path d="M52.3196 251.062L50.175 253.16L66.8321 270.188L68.9766 268.09L52.3196 251.062Z" fill="white"/>
<path d="M67.9 283.31H0V219.52H67.9V222.52H3V280.31H67.9V283.31Z" fill="#7D6A54" fill-opacity="0.5"/>
<path d="M339.19 102.21H269.57V99.21H336.19V23.17L320.91 7.01001H257.98V50.01H254.98V4.01001H322.2L339.19 21.98V102.21Z" fill="#7D6A54" fill-opacity="0.5"/>
<path d="M337.69 26.14H318.54V5.51001H321.54V23.14H337.69V26.14Z" fill="#7D6A54" fill-opacity="0.5"/>
<path d="M279.73 34.71L272 26.98L274.12 24.86L279.73 30.47L289.16 21.05L291.28 23.17L279.73 34.71Z" fill="white"/>
<path d="M279.73 57.37L272 49.64L274.12 47.52L279.73 53.13L289.16 43.7L291.28 45.82L279.73 57.37Z" fill="white"/>
<path d="M279.73 80.47L272 72.73L274.12 70.61L279.73 76.22L289.16 66.8L291.28 68.92L279.73 80.47Z" fill="white"/>
<path d="M323.57 51.97H299.15V54.97H323.57V51.97Z" fill="white"/>
<path d="M323.57 32.22H299.15V35.22H323.57V32.22Z" fill="white"/>
<path d="M323.28 71.89H299.15V74.89H323.28V71.89Z" fill="white"/>
<path d="M53.9417 90.3597L45.7102 97.0064L47.5949 99.3405L55.8264 92.6938L53.9417 90.3597Z" fill="white"/>
<path d="M40.1594 73.2982L31.9244 79.9406L33.8079 82.2757L42.0429 75.6333L40.1594 73.2982Z" fill="white"/>
<path d="M42.4 114.81L16.07 82.17L27.79 72.71L54.12 105.35L42.4 114.81ZM20.29 82.62L42.85 110.62L49.85 104.93L27.29 76.93L20.29 82.62Z" fill="white"/>
<path d="M16 122.47C15.0896 122.473 14.1901 122.271 13.3679 121.88C12.5458 121.489 11.822 120.918 11.25 120.21L3.25 110.3C2.74625 109.677 2.37019 108.961 2.14329 108.192C1.91639 107.424 1.8431 106.618 1.92761 105.821C2.01211 105.025 2.25276 104.252 2.6358 103.549C3.01884 102.845 3.53677 102.224 4.16 101.72L21.61 87.32L23.52 89.64L6.07 104C5.42716 104.516 5.01551 105.266 4.9255 106.086C4.8355 106.905 5.0745 107.727 5.59 108.37L13.59 118.28C14.1073 118.918 14.8561 119.326 15.6731 119.414C16.49 119.502 17.3086 119.264 17.95 118.75L35.39 104.35L37.3 106.67L19.84 121.07C18.7607 121.967 17.4035 122.462 16 122.47Z" fill="white"/>
<path d="M84.78 103.57C73.1601 103.568 61.915 99.4581 53.0329 91.9661C44.1507 84.4741 38.2037 74.0828 36.2432 62.6295C34.2826 51.1762 36.4349 39.3985 42.3195 29.3788C48.204 19.3591 57.4418 11.7428 68.3996 7.87635C79.3574 4.00993 91.3294 4.14249 102.199 8.25059C113.068 12.3587 122.135 20.1777 127.797 30.3253C133.458 40.4728 135.349 52.2952 133.135 63.7023C130.922 75.1095 124.746 85.3665 115.7 92.66C106.943 99.7236 96.0307 103.574 84.78 103.57V103.57ZM84.69 8.00001C74.1968 8.0157 64.0204 11.5969 55.8299 18.1561C47.6394 24.7153 41.9211 33.8633 39.6128 44.0995C37.3046 54.3357 38.5434 65.0524 43.1262 74.492C47.7089 83.9316 55.3635 91.5337 64.8345 96.0513C74.3054 100.569 85.0305 101.734 95.2505 99.3551C105.471 96.9764 114.579 91.1952 121.082 82.9597C127.584 74.7242 131.095 64.5234 131.039 54.0303C130.982 43.5372 127.361 33.3749 120.77 25.21C116.435 19.8157 110.94 15.4673 104.694 12.4879C98.4476 9.50849 91.6104 7.97454 84.69 8.00001V8.00001ZM84.81 92.06C75.8935 92.0782 67.2579 88.9421 60.431 83.2066C53.604 77.471 49.0256 69.5057 47.5058 60.7196C45.986 51.9336 47.6227 42.8932 52.1264 35.1977C56.63 27.5021 63.7104 21.6475 72.1149 18.6695C80.5194 15.6915 89.7064 15.7821 98.0505 18.9252C106.395 22.0683 113.358 28.0613 117.709 35.8441C122.06 43.6269 123.519 52.6979 121.826 61.4522C120.133 70.2066 115.399 78.0802 108.46 83.68C101.774 89.1096 93.4229 92.0723 84.81 92.07V92.06ZM84.67 19.5C75.5505 19.4821 66.7842 23.0242 60.237 29.3724C53.6899 35.7206 49.879 44.3736 49.6157 53.4892C49.3523 62.6049 52.6573 71.4634 58.827 78.179C64.9968 84.8946 73.544 88.9369 82.6493 89.4455C91.7546 89.954 100.699 86.8886 107.578 80.9018C114.457 74.915 118.728 66.4796 119.481 57.3913C120.235 48.303 117.411 39.2795 111.612 32.2417C105.812 25.2039 97.4948 20.7077 88.43 19.71C87.1813 19.5739 85.9261 19.5072 84.67 19.51V19.5Z" fill="#7D6A54" fill-opacity="0.5"/>
<path d="M71.71 74L74.2 59.5L63.67 49.24L78.23 47.12L84.74 33.93L91.25 47.12L105.81 49.24L95.27 59.51L97.76 74L84.76 67.15L71.71 74ZM84.71 63.76L93.71 68.51L92.05 58.46L99.36 51.33L89.25 49.86L84.74 40.71L80.22 49.86L70.11 51.33L77.42 58.46L75.7 68.52L84.71 63.76Z" fill="white"/>
<path d="M34.18 190.32L24.68 169.16L49.82 172.33L34.18 190.32ZM29.6 172.8L35 184.8L43.87 174.59L29.6 172.8Z" fill="#7D6A54" fill-opacity="0.5"/>
<path d="M159.62 25.59L159.61 7.34002L142.57 18.54L141.09 6.71002L133.26 8.35002L132.65 5.41002L143.67 3.10002L144.95 13.38L162.61 1.77002L162.62 25.59H159.62Z" fill="white"/>
<path d="M209.33 195.85C207.69 195.85 206.088 195.364 204.724 194.453C203.361 193.542 202.298 192.247 201.671 190.732C201.044 189.218 200.879 187.551 201.199 185.943C201.519 184.335 202.309 182.857 203.468 181.698C204.627 180.539 206.105 179.749 207.713 179.429C209.321 179.109 210.988 179.274 212.502 179.901C214.017 180.529 215.312 181.591 216.223 182.954C217.134 184.318 217.62 185.92 217.62 187.56C217.617 189.758 216.743 191.865 215.189 193.419C213.635 194.973 211.528 195.847 209.33 195.85V195.85ZM209.33 182.27C208.284 182.27 207.261 182.58 206.391 183.162C205.521 183.743 204.843 184.569 204.443 185.536C204.042 186.502 203.938 187.566 204.142 188.592C204.346 189.618 204.85 190.561 205.589 191.301C206.329 192.04 207.272 192.544 208.298 192.748C209.324 192.952 210.388 192.848 211.354 192.447C212.321 192.047 213.147 191.369 213.728 190.499C214.31 189.629 214.62 188.606 214.62 187.56C214.617 186.158 214.059 184.814 213.068 183.822C212.076 182.831 210.732 182.273 209.33 182.27V182.27Z" fill="#7D6A54" fill-opacity="0.5"/>
<path d="M217.93 45.44C214.122 47.3944 209.878 48.3476 205.6 48.21C194.24 48.21 184.6 39.9 184.6 26.6C184.6 12.33 194.51 0 209.88 0C222 0 230.05 8.45 230.05 20C230.05 30.39 224.23 36.49 217.72 36.49C214.95 36.49 212.39 34.62 212.6 30.39H212.32C209.89 34.48 206.71 36.49 202.55 36.49C198.39 36.49 195.07 33.23 195.07 27.76C195.062 25.6015 195.481 23.4627 196.304 21.467C197.126 19.4712 198.335 17.6579 199.862 16.1316C201.388 14.6053 203.201 13.3961 205.197 12.5737C207.193 11.7514 209.331 11.3321 211.49 11.34C214.034 11.3021 216.558 11.796 218.9 12.79L216.54 25.33C215.54 30.6 216.34 33.02 218.62 33.09C222.15 33.16 226.1 28.45 226.1 20.41C226.1 10.41 220.1 3.17 209.34 3.17C198.05 3.17 188.56 12.1 188.56 26.17C188.56 37.74 196.11 44.88 206.36 44.88C209.996 44.9665 213.595 44.1305 216.82 42.45L217.93 45.44ZM214.12 15.52C212.997 15.1863 211.831 15.0211 210.66 15.03C204.56 15.03 199.66 20.78 199.66 27.5C199.66 30.55 201.19 32.77 204.23 32.77C208.23 32.77 211.92 27.64 212.68 23.34L214.12 15.52Z" fill="#7D6A54" fill-opacity="0.5"/>
<path d="M328.83 288.9H310.25C309.853 288.897 309.473 288.739 309.192 288.458C308.911 288.177 308.753 287.797 308.75 287.4V171.31C308.75 170.912 308.908 170.531 309.189 170.249C309.471 169.968 309.852 169.81 310.25 169.81H328.83C329.228 169.81 329.609 169.968 329.891 170.249C330.172 170.531 330.33 170.912 330.33 171.31V287.4C330.33 287.798 330.172 288.179 329.891 288.461C329.609 288.742 329.228 288.9 328.83 288.9V288.9ZM311.75 285.9H327.33V172.81H311.75V285.9Z" fill="white"/>
<path d="M330.33 302.83H308.75V285.9H330.33V302.83ZM311.75 299.83H327.33V288.9H311.75V299.83Z" fill="white"/>
<path d="M328.83 172.81H310.25C310.01 172.812 309.772 172.755 309.559 172.645C309.345 172.535 309.161 172.375 309.022 172.179C308.884 171.982 308.795 171.755 308.763 171.517C308.731 171.278 308.758 171.036 308.84 170.81L318.12 144C318.221 143.704 318.412 143.446 318.667 143.264C318.921 143.081 319.227 142.983 319.54 142.983C319.853 142.983 320.159 143.081 320.413 143.264C320.668 143.446 320.859 143.704 320.96 144L330.25 170.82C330.33 171.047 330.355 171.289 330.321 171.528C330.288 171.766 330.198 171.992 330.059 172.188C329.92 172.384 329.735 172.544 329.521 172.654C329.308 172.764 329.07 172.821 328.83 172.82V172.81ZM312.36 169.81H326.72L319.54 149.08L312.36 169.81Z" fill="white"/>
<path d="M321.04 134.95H318.04V149.14H321.04V134.95Z" fill="white"/>
<path d="M284 294.87L187 226.78C184.922 225.321 182.444 224.539 179.905 224.539C177.366 224.539 174.888 225.321 172.81 226.78L76.23 294.87L74.5 292.42L171.14 224.33C173.727 222.52 176.808 221.548 179.965 221.548C183.122 221.548 186.203 222.52 188.79 224.33L285.79 292.43L284 294.87Z" fill="white"/>
<path d="M287.12 295.98H74.05V149.72L101.72 130.27L103.44 132.72L77.05 151.27V292.98H284.12V151.27L260.98 135.07L262.7 132.61L287.12 149.71V295.98Z" fill="white"/>
<path d="M283.858 149.22L199.672 232.645L201.784 234.776L285.97 151.35L283.858 149.22Z" fill="white"/>
<path d="M76.4211 149.234L74.3087 151.364L157.422 233.783L159.534 231.653L76.4211 149.234Z" fill="white"/>
<path d="M257.87 169.93H254.87V59.56H139.98V56.56H257.87V169.93Z" fill="white"/>
<path d="M108.96 104.79H105.96V167.03H108.96V104.79Z" fill="white"/>
<path d="M231 88.8H227V85.8H231V88.8ZM223 88.8H219V85.8H223V88.8ZM215 88.8H211V85.8H215V88.8ZM207 88.8H203V85.8H207V88.8ZM199 88.8H195V85.8H199V88.8ZM191 88.8H187V85.8H191V88.8ZM183 88.8H179V85.8H183V88.8ZM175 88.8H171V85.8H175V88.8ZM167 88.8H163V85.8H167V88.8ZM159 88.8H155V85.8H159V88.8ZM151 88.8H147V85.8H151V88.8Z" fill="white"/>
<path d="M231.93 106.46H132.64V109.46H231.93V106.46Z" fill="white"/>
<path d="M231.93 127.11H171.73V130.11H231.93V127.11Z" fill="white"/>
<path d="M155.31 127.11H132.64V130.11H155.31V127.11Z" fill="white"/>
<path d="M231.93 147.77H132.64V150.77H231.93V147.77Z" fill="white"/>
<path d="M182.22 168.43H133.24V171.43H182.22V168.43Z" fill="white"/>
</g>
<defs>
<clipPath id="clip0_14_2">
<rect width="339.19" height="302.83" fill="white"/>
</clipPath>
</defs>
</svg>
