<svg xmlns="http://www.w3.org/2000/svg" viewBox="0 0 339.19 302.83"><defs><style>.cls-1{fill:#ff6c6c;}.cls-2{fill:#0000ce;}.cls-3{fill:#ff8cac;}</style></defs><g id="Layer_2" data-name="Layer 2"><g id="Illustrations"><rect class="cls-1" x="314.85" y="172.66" width="13.98" height="113.03"/><path class="cls-1" d="M283.67,159.56V295.62H85.12V159.56l23.09-16.5-1.51,39,58.55,57.59L178.86,231a11,11,0,0,1,12,.1L203,239.18l44.39-46.53,35.09-33.9Z"/><path class="cls-2" d="M40.6,261.28a5.89,5.89,0,0,1-4.06-1.62L4.64,228.85l2.08-2.16,31.9,30.8a2.89,2.89,0,0,0,4,0l21.72-20.73,2.07,2.17L44.66,259.65A5.85,5.85,0,0,1,40.6,261.28Z"/><rect class="cls-2" x="0.61" y="263.13" width="34.69" height="3" transform="translate(-185.35 94.28) rotate(-46.16)"/><rect class="cls-2" x="58.08" y="248.72" width="3" height="23.82" transform="translate(-165.27 115.98) rotate(-44.37)"/><polygon class="cls-3" points="67.9 283.31 0 283.31 0 219.52 67.9 219.52 67.9 222.52 3 222.52 3 280.31 67.9 280.31 67.9 283.31"/><polygon class="cls-3" points="339.19 102.21 269.57 102.21 269.57 99.21 336.19 99.21 336.19 23.17 320.91 7.01 257.98 7.01 257.98 50.01 254.98 50.01 254.98 4.01 322.2 4.01 339.19 21.98 339.19 102.21"/><polygon class="cls-3" points="337.69 26.14 318.54 26.14 318.54 5.51 321.54 5.51 321.54 23.14 337.69 23.14 337.69 26.14"/><polygon class="cls-2" points="279.73 34.71 272 26.98 274.12 24.86 279.73 30.47 289.16 21.05 291.28 23.17 279.73 34.71"/><polygon class="cls-2" points="279.73 57.37 272 49.64 274.12 47.52 279.73 53.13 289.16 43.7 291.28 45.82 279.73 57.37"/><polygon class="cls-2" points="279.73 80.47 272 72.73 274.12 70.61 279.73 76.22 289.16 66.8 291.28 68.92 279.73 80.47"/><rect class="cls-2" x="299.15" y="51.97" width="24.42" height="3"/><rect class="cls-2" x="299.15" y="32.22" width="24.42" height="3"/><rect class="cls-2" x="299.15" y="71.89" width="24.13" height="3"/><rect class="cls-2" x="45.48" y="93.35" width="10.58" height="3" transform="translate(-48.32 52.95) rotate(-38.92)"/><rect class="cls-2" x="31.7" y="76.28" width="10.58" height="3" transform="translate(-40.64 40.47) rotate(-38.89)"/><path class="cls-2" d="M42.4,114.81,16.07,82.17l11.72-9.46,26.33,32.64ZM20.29,82.62l22.56,28,7-5.69-22.56-28Z"/><path class="cls-2" d="M16,122.47a6.08,6.08,0,0,1-4.75-2.26l-8-9.91a6.1,6.1,0,0,1,.91-8.58l17.45-14.4,1.91,2.32L6.07,104a3.11,3.11,0,0,0-.48,4.37l8,9.91a3.11,3.11,0,0,0,4.36.47l17.44-14.4,1.91,2.32-17.46,14.4A6.06,6.06,0,0,1,16,122.47Z"/><path class="cls-3" d="M84.78,103.57A49.25,49.25,0,1,1,115.7,92.66,49.22,49.22,0,0,1,84.78,103.57ZM84.69,8a46.28,46.28,0,1,0,36.08,17.21A46.07,46.07,0,0,0,84.69,8Zm.12,84.06a37.78,37.78,0,1,1,23.65-8.38A37.5,37.5,0,0,1,84.81,92.07Zm-.14-72.56a35,35,0,1,0,3.76.21A34,34,0,0,0,84.67,19.51Z"/><path class="cls-2" d="M71.71,74l2.49-14.5L63.67,49.24l14.56-2.12,6.51-13.19,6.51,13.19,14.56,2.12L95.27,59.51,97.76,74l-13-6.85Zm13-10.24,9,4.75L92.05,58.46l7.31-7.13L89.25,49.86l-4.51-9.15-4.52,9.15L70.11,51.33l7.31,7.13L75.7,68.52Z"/><path class="cls-3" d="M34.18,190.32l-9.5-21.16,25.14,3.17ZM29.6,172.8l5.4,12,8.87-10.21Z"/><polygon class="cls-2" points="159.62 25.59 159.61 7.34 142.57 18.54 141.09 6.71 133.26 8.35 132.65 5.41 143.67 3.1 144.95 13.38 162.61 1.77 162.62 25.59 159.62 25.59"/><path class="cls-3" d="M209.33,195.85a8.29,8.29,0,1,1,8.29-8.29A8.3,8.3,0,0,1,209.33,195.85Zm0-13.58a5.29,5.29,0,1,0,5.29,5.29A5.3,5.3,0,0,0,209.33,182.27Z"/><path class="cls-3" d="M217.93,45.44a25.23,25.23,0,0,1-12.33,2.77c-11.36,0-21-8.31-21-21.61,0-14.27,9.91-26.6,25.28-26.6C222,0,230.05,8.45,230.05,20c0,10.39-5.82,16.49-12.33,16.49-2.77,0-5.33-1.87-5.12-6.1h-.28c-2.43,4.09-5.61,6.1-9.77,6.1s-7.48-3.26-7.48-8.73a16.36,16.36,0,0,1,16.42-16.42,18.27,18.27,0,0,1,7.41,1.45l-2.36,12.54c-1,5.27-.2,7.69,2.08,7.76,3.53.07,7.48-4.64,7.48-12.68,0-10-6-17.24-16.76-17.24-11.29,0-20.78,8.93-20.78,23,0,11.57,7.55,18.71,17.8,18.71a21.53,21.53,0,0,0,10.46-2.43Zm-3.81-29.92a11.83,11.83,0,0,0-3.46-.49c-6.1,0-11,5.75-11,12.47,0,3.05,1.53,5.27,4.57,5.27,4,0,7.69-5.13,8.45-9.43Z"/><path class="cls-2" d="M328.83,288.9H310.25a1.51,1.51,0,0,1-1.5-1.5V171.31a1.5,1.5,0,0,1,1.5-1.5h18.58a1.5,1.5,0,0,1,1.5,1.5V287.4A1.5,1.5,0,0,1,328.83,288.9Zm-17.08-3h15.58V172.81H311.75Z"/><path class="cls-2" d="M330.33,302.83H308.75V285.9h21.58Zm-18.58-3h15.58V288.9H311.75Z"/><path class="cls-2" d="M328.83,172.81H310.25a1.49,1.49,0,0,1-1.41-2L318.12,144a1.5,1.5,0,0,1,2.84,0l9.29,26.82a1.5,1.5,0,0,1-1.42,2Zm-16.47-3h14.36l-7.18-20.73Z"/><rect class="cls-2" x="318.04" y="134.95" width="3" height="14.19"/><path class="cls-2" d="M284,294.87l-97-68.09a12.35,12.35,0,0,0-14.19,0L76.23,294.87l-1.73-2.45,96.64-68.09a15.39,15.39,0,0,1,17.65,0l97,68.1Z"/><polygon class="cls-2" points="287.12 295.98 74.05 295.98 74.05 149.72 101.72 130.27 103.44 132.72 77.05 151.27 77.05 292.98 284.12 292.98 284.12 151.27 260.98 135.07 262.7 132.61 287.12 149.71 287.12 295.98"/><rect class="cls-2" x="183.56" y="190.51" width="118.52" height="3" transform="translate(-64.81 226.53) rotate(-44.74)"/><rect class="cls-2" x="115.42" y="132.97" width="3" height="117.05" transform="translate(-101.38 139.69) rotate(-45.24)"/><polygon class="cls-2" points="257.87 169.93 254.87 169.93 254.87 59.56 139.98 59.56 139.98 56.56 257.87 56.56 257.87 169.93"/><rect class="cls-2" x="105.96" y="104.79" width="3" height="62.24"/><path class="cls-2" d="M231,88.8h-4v-3h4Zm-8,0h-4v-3h4Zm-8,0h-4v-3h4Zm-8,0h-4v-3h4Zm-8,0h-4v-3h4Zm-8,0h-4v-3h4Zm-8,0h-4v-3h4Zm-8,0h-4v-3h4Zm-8,0h-4v-3h4Zm-8,0h-4v-3h4Zm-8,0h-4v-3h4Z"/><rect class="cls-2" x="132.64" y="106.46" width="99.29" height="3"/><rect class="cls-2" x="171.73" y="127.11" width="60.2" height="3"/><rect class="cls-2" x="132.64" y="127.11" width="22.67" height="3"/><rect class="cls-2" x="132.64" y="147.77" width="99.29" height="3"/><rect class="cls-2" x="133.24" y="168.43" width="48.98" height="3"/></g></g></svg>