<svg xmlns="http://www.w3.org/2000/svg" viewBox="0 0 48 48"><defs><style>.cls-1{fill:none;stroke:#000;stroke-linejoin:round;stroke-width:2px;}</style></defs><title>16-online constulting</title><g id="_16-online_constulting" data-name="16-online constulting"><path class="cls-1" d="M47,47V39a4,4,0,0,0-4-4H35a4,4,0,0,0-4,4v8Z"/><circle class="cls-1" cx="39" cy="29" r="4"/><line class="cls-1" x1="35" y1="47" x2="35" y2="43"/><line class="cls-1" x1="43" y1="47" x2="43" y2="43"/><path class="cls-1" d="M39,22V3a2,2,0,0,0-2-2H3A2,2,0,0,0,1,3V35a2,2,0,0,0,2,2H28"/><line class="cls-1" x1="1" y1="9" x2="36" y2="9"/><line class="cls-1" x1="4" y1="5" x2="6" y2="5"/><line class="cls-1" x1="8" y1="5" x2="10" y2="5"/><line class="cls-1" x1="12" y1="5" x2="14" y2="5"/><line class="cls-1" x1="34" y1="5" x2="36" y2="5"/><path class="cls-1" d="M6,26V16a2,2,0,0,1,2-2H25a2,2,0,0,1,2,2v8l4,4H8A2,2,0,0,1,6,26Z"/><line class="cls-1" x1="14" y1="19" x2="23" y2="19"/><line class="cls-1" x1="10" y1="24" x2="23" y2="24"/><line class="cls-1" x1="10" y1="19" x2="12" y2="19"/><line class="cls-1" x1="4" y1="33" x2="10" y2="33"/><line class="cls-1" x1="12" y1="33" x2="14" y2="33"/></g></svg>