<svg id="_01-law" data-name="01-law" xmlns="http://www.w3.org/2000/svg" viewBox="0 0 48 48"><defs><style>.cls-1{fill:none;stroke:#000;stroke-linejoin:round;stroke-width:2px;}</style></defs><title>01-law</title><circle class="cls-1" cx="40" cy="32" r="7"/><polyline class="cls-1" points="36 38 36 47 40 43 44 47 44 38"/><path class="cls-1" d="M43,22V3a2,2,0,0,0-2-2H13L5,9V45a2,2,0,0,0,2,2H34"/><path class="cls-1" d="M13,1V7a2,2,0,0,1-2,2H5"/><line class="cls-1" x1="17" y1="14" x2="39" y2="14"/><line class="cls-1" x1="9" y1="19" x2="39" y2="19"/><line class="cls-1" x1="9" y1="24" x2="33" y2="24"/><line class="cls-1" x1="9" y1="29" x2="30" y2="29"/><line class="cls-1" x1="9" y1="34" x2="30" y2="34"/><line class="cls-1" x1="9" y1="39" x2="32" y2="39"/><path class="cls-1" d="M35,5h2a2,2,0,0,1,2,2V9"/><line class="cls-1" x1="33" y1="5" x2="31" y2="5"/></svg>