<svg id="_01-payment" data-name="01-payment" xmlns="http://www.w3.org/2000/svg" viewBox="0 0 48 48"><defs><style>.cls-1{fill:none;stroke:#000;stroke-linejoin:round;stroke-width:2px;}</style></defs><title>01-payment</title><path class="cls-1" d="M47,22H34.643l-3.6-4H24a2,2,0,0,1-2-2h0a4,4,0,0,1,4-4h1a2,2,0,0,1,2,2h6"/><path class="cls-1" d="M47,7.212,25.5,1,15.209,5.885A2.4,2.4,0,0,0,14,7.97h0a2.4,2.4,0,0,0,3.544,2.112l8.076-4.37L30,8.938"/><path class="cls-1" d="M24.542,18A9.994,9.994,0,1,1,17,5.2"/><path class="cls-1" d="M22,7.855A10,10,0,0,1,24.543,12"/><path class="cls-1" d="M15,9a3,3,0,0,0,0,6"/><path class="cls-1" d="M12,18a3,3,0,1,0,3-3"/><line class="cls-1" x1="15" y1="21" x2="15" y2="23"/><line class="cls-1" x1="18" y1="10" x2="18" y2="13"/><path class="cls-1" d="M7,21H3a2,2,0,0,0-2,2V45a2,2,0,0,0,2,2H37a2,2,0,0,0,2-2V42"/><line class="cls-1" x1="1" y1="29" x2="39" y2="29"/><rect class="cls-1" x="31" y="34" width="12" height="8" rx="2" ry="2"/><line class="cls-1" x1="39" y1="34" x2="39" y2="25"/><line class="cls-1" x1="34" y1="38" x2="36" y2="38"/><line class="cls-1" x1="4" y1="39" x2="8" y2="39"/><line class="cls-1" x1="4" y1="43" x2="12" y2="43"/></svg>