<svg xmlns="http://www.w3.org/2000/svg" viewBox="0 0 48 48"><defs><style>.cls-1{fill:none;stroke:#000;stroke-linejoin:round;stroke-width:2px;}</style></defs><title>23-ducument</title><g id="_23-ducument" data-name="23-ducument"><path class="cls-1" d="M17,9l8-8H43a4,4,0,0,1,4,4V33a4,4,0,0,1-4,4H42"/><polyline class="cls-1" points="25 1 25 9 17 9 17 10"/><line class="cls-1" x1="44" y1="5" x2="40" y2="5"/><line class="cls-1" x1="38" y1="5" x2="36" y2="5"/><path class="cls-1" d="M1,33V17a4,4,0,0,1,4-4h8v6H35a4,4,0,0,1,4,4V43a4,4,0,0,1-4,4H20"/><polyline class="cls-1" points="13 13 22 13 22 19"/><line class="cls-1" x1="13" y1="19" x2="7" y2="19"/><path class="cls-1" d="M1,47V39a4,4,0,0,1,4-4h8a4,4,0,0,1,4,4v8Z"/><circle class="cls-1" cx="9" cy="29" r="4"/><line class="cls-1" x1="13" y1="47" x2="13" y2="43"/><line class="cls-1" x1="5" y1="47" x2="5" y2="43"/><path class="cls-1" d="M31,23h2a2,2,0,0,1,2,2v2"/><line class="cls-1" x1="29" y1="23" x2="27" y2="23"/></g></svg>