<svg xmlns="http://www.w3.org/2000/svg" viewBox="0 0 48 48"><defs><style>.cls-1{fill:none;stroke:#000;stroke-linejoin:round;stroke-width:2px;}</style></defs><title>23-jude</title><g id="_23-jude" data-name="23-jude"><rect class="cls-1" x="19" y="1" width="12" height="18" rx="6" ry="6"/><path class="cls-1" d="M19,9a2.938,2.938,0,0,0,3-3s0,3,9,3"/><polyline class="cls-1" points="31 10 32 10 32 13 31 13"/><polyline class="cls-1" points="19 13 18 13 18 10 19 10"/><path class="cls-1" d="M23,19v1a2,2,0,0,0,2,2h0a2,2,0,0,0,2-2V19"/><path class="cls-1" d="M12,36V29a8,8,0,0,1,8-8"/><path class="cls-1" d="M30,21a8,8,0,0,1,8,8v4"/><polyline class="cls-1" points="34 22 25 31 16 22"/><line class="cls-1" x1="25" y1="31" x2="25" y2="35"/><line class="cls-1" x1="17" y1="38" x2="17" y2="31"/><path class="cls-1" d="M17,1H3A2,2,0,0,0,1,3V16a2,2,0,0,0,2,2H5l3,4V18h7"/><path class="cls-1" d="M35,10H45a2,2,0,0,1,2,2v6a2,2,0,0,1-2,2H44l-3,3V20H37"/><line class="cls-1" x1="4" y1="7" x2="15" y2="7"/><line class="cls-1" x1="4" y1="12" x2="15" y2="12"/><line class="cls-1" x1="44" y1="15" x2="35" y2="15"/><path class="cls-1" d="M31,39H23.888A1.939,1.939,0,0,1,22,37.013v-.026A1.945,1.945,0,0,1,23.888,35H27.7s0-2,6.65-2S41,35,41,35V45s-15.05,2-16,2L9,39H9a2.8,2.8,0,0,1,3.759-2.633L21,40l2-1"/><rect class="cls-1" x="41" y="33" width="6" height="13"/></g></svg>