<svg xmlns="http://www.w3.org/2000/svg" viewBox="0 0 48 48"><defs><style>.cls-1{fill:none;stroke:#000;stroke-linejoin:round;stroke-width:2px;}</style></defs><title>26-startup</title><g id="_26-startup" data-name="26-startup"><path class="cls-1" d="M4,41V15a4,4,0,0,1,4-4h5"/><path class="cls-1" d="M44,41V15a4,4,0,0,0-4-4H35"/><path class="cls-1" d="M31,41v2H17V41H1a6,6,0,0,0,6,6H41a6,6,0,0,0,6-6Z"/><ellipse class="cls-1" cx="24" cy="15" rx="8" ry="14"/><line class="cls-1" x1="16" y1="11" x2="32" y2="11"/><polyline class="cls-1" points="24 29 35 29 35 24 31 20"/><polyline class="cls-1" points="24 29 13 29 13 24 17 20"/><path class="cls-1" d="M8,37H18a2,2,0,0,0,2-2V32"/><path class="cls-1" d="M40,37H30a2,2,0,0,1-2-2V32"/><line class="cls-1" x1="24" y1="32" x2="24" y2="38"/><circle class="cls-1" cx="24" cy="18" r="3"/></g></svg>